# xmcd
#
# Track frame offsets: 
#        150
#        13314
#        25425
#        38702
#        52531
#        66301
#        77171
#        90373
#        104100
#        116849
#        129598
#        143096
#        156429
#        168459
#        179924
#        195525
#        216075
#        233926
#        245102
#        257706
#        268575
#        284472
#        299019
#        317057
#        330856
#
# Disc length: 4639 seconds
#
# Revision: 2
# Processed by: cddbd v1.5.1PL2 Copyright (c) Steve Scherf et al.
# Submitted via: ExactAudioCopy v0.95b4
#
DISCID=81121d19
DTITLE=Tanya Tucker - The Upper 48 Hits 1972-1997 [Disc 1]
DYEAR=2002
DGENRE=Country
TTITLE0=Delta Dawn
TTITLE1=Love's The Answer
TTITLE2=The Jamestown Ferry
TTITLE3=What's Your Mama's Name, Child?
TTITLE4=Blood Red And Going Down
TTITLE5=Would You Lay With Me (In A Field Of Stone)?
TTITLE6=The Man That Turned My Mama On
TTITLE7=Lizzie And The Rainman
TTITLE8=San Antonio Stroll
TTITLE9=Don't Believe My Heart Can Stand Another You
TTITLE10=You've Got Me To Hold On To
TTITLE11=Here's Some Love
TTITLE12=Ridin' Rainbows
TTITLE13=It's A Cowboy Lovin' Night
TTITLE14=Dancing The Night Away
TTITLE15=Texas (When I Die)
TTITLE16=I'm The Singer, You're The Song
TTITLE17=Pecos Promenade
TTITLE18=Can I See You Tonight?
TTITLE19=Feel Right
TTITLE20=Baby I'm Yours
TTITLE21=Just Another Love
TTITLE22=I'll Come Back As Another Woman
TTITLE23=It's Only Over For You
TTITLE24=Love Me Like You Used To
EXTD=
EXTT0=
EXTT1=
EXTT2=
EXTT3=
EXTT4=
EXTT5=
EXTT6=
EXTT7=
EXTT8=
EXTT9=
EXTT10=
EXTT11=
EXTT12=
EXTT13=
EXTT14=
EXTT15=
EXTT16=
EXTT17=
EXTT18=
EXTT19=
EXTT20=
EXTT21=
EXTT22=
EXTT23=
EXTT24=
PLAYORDER=
